<svg width="512" height="512" viewBox="0 0 512 512" fill="none" xmlns="http://www.w3.org/2000/svg">
<g id="&#228;&#184;&#138;&#231;&#182;&#178;">
<rect width="512" height="512" fill="white"/>
<path id="&#228;&#184;&#138;&#231;&#182;&#178;_2" d="M233.536 445.064V428.456H250.48V422.648H233.536V408.92H227.392V445.064H210.208V450.824H253.84V445.064H233.536ZM259.216 436.424C258.832 440.456 258.16 444.728 256.768 447.56C257.92 447.992 259.984 448.904 260.944 449.576C262.288 446.504 263.344 441.752 263.776 437.192L259.216 436.424ZM288.688 441.608C288.064 441.608 287.968 441.224 287.968 440.024V435.8H294.928V431.48H290.656V427.736H294.784V423.416H292.48C293.248 421.784 294.16 419.576 295.168 417.512L290.848 416.264C290.512 418.136 289.696 420.968 288.976 422.744L290.896 423.416H284.944L287.248 422.6C287.056 420.968 286.288 418.376 285.328 416.504L281.968 417.704C282.688 419.432 283.312 421.784 283.552 423.416H281.824V427.736H285.856V431.48H281.68V435.8H283.216V439.976C283.216 444.488 284.176 446.072 288.688 446.072H291.904C293.008 446.072 294.016 446.024 294.736 445.736C294.592 444.632 294.448 442.472 294.352 441.32C293.68 441.512 292.576 441.608 291.904 441.608H288.688ZM301.264 410.408H275.488V430.088C274.672 427.976 273.568 425.72 272.464 423.8L268.432 425.48C268.96 426.44 269.488 427.496 269.968 428.552L265.792 428.792C268.816 424.952 272.08 420.2 274.72 416.168L270.064 414.008C268.96 416.36 267.424 419.096 265.744 421.784C265.312 421.208 264.784 420.536 264.208 419.912C265.984 417.224 267.952 413.432 269.632 410.12L264.688 408.392C263.92 410.84 262.576 414.056 261.232 416.696C260.848 416.36 260.464 416.024 260.128 415.688L257.344 419.528C259.264 421.496 261.472 424.088 262.816 426.248C262.096 427.256 261.376 428.216 260.656 429.08L257.2 429.272L257.776 434.216L264.448 433.688V453.176H269.344V433.304L271.744 433.112C272.032 434.168 272.32 435.128 272.464 435.944L275.488 434.552V441.224C275.008 439.544 274.432 437.72 273.76 436.232L269.776 437.432C270.832 440.168 271.744 443.72 271.984 446.072L275.488 444.92V453.272H280.576V415.352H296.08V447.512C296.08 448.184 295.84 448.424 295.168 448.472C294.496 448.472 292.336 448.472 290.416 448.376C291.088 449.672 291.76 451.832 291.904 453.176C295.264 453.224 297.52 453.08 299.152 452.264C300.736 451.448 301.264 450.152 301.264 447.512V410.408Z" fill="#032164"/>
<g id="&#229;&#156;&#150;">
<circle id="Ellipse 9" cx="187.231" cy="305.598" r="46.2312" fill="#032164"/>
<path id="Vector 24" d="M311 93L253 85V90.5185L311 98.5V93Z" fill="#032164" stroke="#032164"/>
<path id="Vector 25" d="M371 214.291C371 191.176 311.477 118.94 302.809 99.8693C294.141 80.799 273.5 96 280 105C286.5 114 327.547 204.467 323.613 214.291C319.679 224.116 272.759 262.834 255.422 296.93C238.085 331.025 286.05 365.121 309.744 346.05C333.437 326.98 371 237.407 371 214.291Z" fill="#032164" stroke="#032164"/>
</g>
</g>
</svg>
