<svg width="512" height="512" viewBox="0 0 512 512" fill="none" xmlns="http://www.w3.org/2000/svg">
<g id="&#228;&#185;&#190;&#233;&#163;&#175;">
<rect width="512" height="512" fill="white"/>
<path id="&#228;&#185;&#190;&#233;&#163;&#175;_2" d="M225.856 427.064H216.448V424.616H225.856V427.064ZM225.856 433.4H216.448V430.904H225.856V433.4ZM241.072 447.128C239.584 447.128 238.816 446.792 238.816 445.832C238.816 444.2 239.632 441.944 251.44 428.072C251.68 427.784 251.872 427.352 252.016 427.016L248.32 425.528L247.072 425.624H235.552C236.656 424.136 237.664 422.408 238.576 420.536H254.08V415.256H240.784C241.456 413.384 242.032 411.464 242.512 409.496L236.848 408.392C235.744 413.384 233.824 418.28 231.136 421.736V420.488H223.84V417.8H231.76V412.808H223.84V408.344H218.32V412.808H210.352V417.8H218.32V420.488H211.408V437.48H218.32V440.264H209.776V445.352H218.32V453.176H223.84V445.352H232.096V440.264H223.84V437.48H231.136V424.424C232.288 425.384 233.584 426.536 234.256 427.256L234.592 426.872V430.712H242.08C233.44 441.8 233.008 444.296 233.008 446.696C233.008 450.344 235.408 452.648 241.024 452.648H247.84C252.352 452.648 254.272 450.968 254.8 442.568C253.264 442.232 251.488 441.656 249.952 440.792C249.808 446.456 249.328 447.128 247.984 447.128H241.072ZM282.064 448.328C284.032 443.864 284.896 438.632 285.28 433.784C286.384 436.856 287.68 439.736 289.216 442.328C287.152 444.824 284.752 446.792 282.064 448.328ZM295.84 427.928C295.024 431.528 293.824 434.744 292.336 437.576C290.656 434.648 289.36 431.384 288.352 427.928H295.84ZM272.08 425.336V427.592H265.648V425.336H272.08ZM265.648 433.784V431.432H272.08V433.784H265.648ZM298.576 422.648L297.568 422.792H285.52V415.928H301.552V410.6H280.144V427.064C280.144 432.584 279.904 439.448 277.456 445.256C276.592 443 275.344 440.36 274.192 438.248L269.632 439.88C270.112 440.84 270.592 441.896 271.072 443C269.2 443.48 267.376 443.96 265.648 444.44V437.72H277.072V421.4H271.84V417.464H267.04V421.4H262.336C265.36 418.616 267.616 415.64 269.296 413.048C271.744 415.256 274.384 418.424 275.776 420.536L279.232 416.504C277.504 414.008 273.904 410.696 271.024 408.392H265.792C264.112 412.04 261.04 416.36 256.528 419.624C257.68 420.392 259.36 422.12 260.176 423.224L260.56 422.936V445.736C259.504 445.976 258.496 446.216 257.584 446.408L259.36 451.688C263.296 450.488 268.048 448.952 272.752 447.368C273.04 448.328 273.328 449.24 273.472 450.008L275.248 449.288L274.816 449.864C276.016 450.44 278.32 452.12 279.232 453.08C280.288 451.736 281.2 450.248 281.92 448.616C283.024 449.576 284.704 451.64 285.424 452.84C287.968 451.352 290.32 449.384 292.384 446.888C294.4 449.288 296.656 451.256 299.248 452.84C300.112 451.4 301.792 449.336 303.04 448.28C300.208 446.84 297.76 444.824 295.648 442.328C298.576 437.432 300.736 431.24 301.888 423.8L298.576 422.648Z" fill="#032164"/>
<g id="&#229;&#156;&#150;">
<circle id="Ellipse 6" cx="255" cy="164" r="65" fill="#032164"/>
<path id="Vector 14" d="M187.5 256.022C190 242.022 179 212.022 172.5 210.022C166 208.022 68 341.196 68 372.311C68 403.426 77.2837 399.685 98.4636 393.401C128.341 376.607 193.135 335.989 213.288 307.868C233.441 279.748 214.264 280.92 202.157 285.021C181.653 297.128 139.824 321.46 136.543 321.929C133.262 322.397 185 270.022 187.5 256.022Z" fill="#032164" stroke="#032164"/>
<rect id="Rectangle 5" x="229.076" y="289.013" width="78.5024" height="2.34335" fill="#032164"/>
<path id="Vector 15" d="M240.542 291.357C239.858 293.278 239.305 295.111 238.845 297.119C238.58 298.275 238.328 299.436 238.048 300.587C237.939 301.037 237.776 301.47 237.753 301.94C237.691 303.22 237.282 304.403 237.282 305.691C237.282 306.302 237.271 306.914 237.282 307.525C237.299 308.452 237.945 309.527 238.307 310.318C238.809 311.416 239.679 312.144 240.408 313.028C241.218 314.011 241.955 315.055 242.731 316.074C243.536 317.131 244.321 318.118 244.785 319.425C245.522 321.502 245.479 323.691 245.479 325.892C245.479 328.636 245.247 331.282 244.268 333.812C243.936 334.668 243.762 335.663 243.279 336.434C242.868 337.092 242.487 337.628 242.177 338.368C241.828 339.202 241.146 339.856 240.728 340.567" stroke="#032164" stroke-width="3" stroke-linecap="round"/>
<path id="Vector 16" d="M260.758 291.357C258.765 295.884 257.196 300.955 257.196 305.971C257.196 306.134 257.196 306.256 257.264 306.41C257.638 307.261 258.163 308.052 258.576 308.887C259.826 311.418 261.635 313.308 263.473 315.397C264.514 316.579 265.343 317.908 266.266 319.183C267.375 320.716 268.281 322.335 268.658 324.232C268.874 325.318 268.901 326.411 268.901 327.516C268.901 328.693 268.97 329.905 268.766 331.069C268.523 332.446 267.802 333.614 267.047 334.75C266.354 335.792 265.719 336.884 265.022 337.917C264.106 339.276 262.91 340.568 261.776 341.739" stroke="#032164" stroke-width="3" stroke-linecap="round"/>
<path id="Vector 17" d="M281.651 291.357C279.159 293.978 277.402 297.277 276.449 300.789C275.836 303.048 275.754 304.851 276.344 307.098C276.568 307.952 276.643 308.857 276.94 309.689C277.229 310.499 277.617 311.285 277.969 312.068C278.689 313.674 280.208 314.74 281.078 316.27C282.274 318.372 283.608 320.519 284.433 322.797C285.615 326.06 286.422 329.322 286.485 332.809C286.522 334.871 286.202 337.17 285.146 338.97C284.532 340.017 283.617 340.789 282.914 341.739" stroke="#032164" stroke-width="3" stroke-linecap="round"/>
<path id="Vector 18" d="M226.5 389C226.5 389 280.314 392.603 285.927 387.918C289.59 384.861 306.787 364.751 313.997 349.5C315.5 341.5 316.339 332.478 313.997 333.037C305.576 335.044 194 333.706 194 337.052V343.745C212.981 371.459 217.046 384.773 226.5 389Z" fill="#032164" stroke="#032164"/>
<path id="Vector 19" d="M442.866 348.521C439.937 335.632 329.468 185.339 326.833 201.166C324.197 216.994 325.333 262.166 325.333 272.166C325.333 282.166 386.354 342.356 379.01 342.077C353.247 341.098 280.589 356.137 280.589 356.137C280.589 356.137 270.264 365.026 280.589 370.197C290.913 375.368 411.817 380.742 428.806 376.055C445.795 371.369 445.795 361.409 442.866 348.521Z" fill="#032164" stroke="#032164"/>
</g>
</g>
</svg>
