<svg width="512" height="512" viewBox="0 0 512 512" fill="none" xmlns="http://www.w3.org/2000/svg">
<g id="&#230;&#145;&#184;&#233;&#173;&#154;">
<rect width="512" height="512" fill="white"/>
<g id="&#229;&#156;&#150;">
<circle id="Ellipse 1" cx="256" cy="81" r="25" fill="#032164"/>
<rect id="Rectangle 1" x="76" y="194" width="360" height="5" fill="#032164"/>
<path id="Vector 1" d="M214 115.5C199.5 123.5 162 150.5 159.5 155.5C157 160.5 158.5 166 161.5 168C164.5 170 227.5 192.5 230 193C232.5 193.5 234 193 235 190.5C236 188 234.5 184.5 230.5 182C226.5 179.5 191 161 191 161C191 161 209.5 153.5 228.5 144.5C247.5 135.5 228.5 107.5 214 115.5Z" fill="#032164" stroke="#032164"/>
<path id="Vector 2" d="M212.5 261C215.714 252 243 258 243.5 258C244 258 248.5 225.5 248.5 225.5C250 214 220.5 207 215.5 222C215.5 222 209.286 270 212.5 261Z" fill="#032164" stroke="#032164"/>
<path id="Vector 3" d="M280.5 199C283 195.712 325 163 325 163C325 163 303.693 157.414 283.5 144C263.307 130.586 288.5 106 301.5 115.5C314.5 125 350 155.5 351.5 157.5C353 159.5 353.5 164 350.5 167.5C347.5 171 292 204.5 287 206.5C282 208.5 278 202.288 280.5 199Z" fill="#032164" stroke="#032164"/>
<path id="Vector 6" d="M232 194H237.086L240.418 196.5L245.5 194H250.5L244.5 199H234.5L236.5 197.5L232 194Z" fill="white"/>
<g id="Vector 4">
<path d="M243 167.5C235.157 170.901 231.013 173.833 230.5 181C229.998 188.01 233.988 191.046 240.465 195.974L240.5 196C249.626 191.861 252.38 188.581 253 181C252.473 174.405 250.238 171.467 243 167.5Z" fill="#032164"/>
<path d="M240.5 196C249.626 191.861 252.38 188.581 253 181C252.473 174.405 250.238 171.467 243 167.5C235.157 170.901 231.013 173.833 230.5 181C229.998 188.01 233.988 191.046 240.465 195.974M240.5 196L240.465 195.974M240.5 196C240.488 195.991 240.477 195.982 240.465 195.974" stroke="#032164"/>
</g>
<circle id="Ellipse 2" cx="242" cy="177" r="4" fill="white"/>
<path id="Vector 5" d="M240.5 199.5C240.5 199.5 229.5 206 229.5 206.5C229.5 207 248 208 248 207.5C248 207 240.5 199.5 240.5 199.5Z" fill="#032164" stroke="#032164"/>
<path id="Vector 7" d="M219 260.5C225.5 258.5 323.5 271 331 272C338.5 273 335 282.5 331 283C327 283.5 238 288.475 221.5 286C205 283.525 212.5 262.5 219 260.5Z" fill="#032164" stroke="#032164"/>
<path id="Rectangle 2" d="M270.5 224.5C270.5 210.5 302.5 209.5 304 221.5C305.5 233.5 306 263.75 305.5 264.5C305 265.25 275.5 261.5 275.5 261.5C275.5 261.5 270.5 238.5 270.5 224.5Z" fill="#032164"/>
<path id="Rectangle 3" d="M278.5 288.025H304.854C304.854 288.025 300.478 382.935 295.5 392.5C290.522 402.065 283.5 396.5 282.5 392.5C281.5 388.5 278.5 288.025 278.5 288.025Z" fill="#032164"/>
</g>
<path id="&#230;&#145;&#184;&#233;&#173;&#154;_2" d="M231.184 419.048H236.608V416.312H242.368V419.048H247.888V416.312H253.504V411.608H247.888V408.392H242.368V411.608H236.608V408.392H231.184V411.608H225.328V416.312H231.184V419.048ZM225.28 433.832L224.56 428.696L220.048 429.944V422.648H224.752V417.368H220.048V408.392H214.864V417.368H210.016V422.648H214.864V431.288C212.752 431.816 210.88 432.296 209.296 432.632L210.544 438.056L214.864 436.856V446.456C214.864 447.08 214.624 447.272 214.048 447.272C213.472 447.32 211.84 447.32 210.112 447.272C210.784 448.76 211.408 451.112 211.552 452.504C214.624 452.552 216.736 452.36 218.176 451.4C219.616 450.536 220.048 449.144 220.048 446.504V435.368L225.28 433.832ZM232.432 429.608H245.584V431.72H232.432V429.608ZM232.432 423.8H245.584V425.912H232.432V423.8ZM253.744 443.144V438.44H241.552C241.696 437.528 241.84 436.664 241.936 435.704H251.104V419.864H227.152V435.704H236.32C236.224 436.664 236.08 437.576 235.936 438.44H224.56V443.144H234.064C232.24 445.64 229.024 447.416 222.928 448.616C224.032 449.72 225.376 451.832 225.856 453.224C233.92 451.352 237.856 448.376 239.872 444.2C242.272 448.568 245.872 451.592 251.296 453.08C252.016 451.64 253.552 449.48 254.752 448.376C250.48 447.512 247.264 445.688 245.104 443.144H253.744ZM281.296 415.64C280.528 416.888 279.568 418.136 278.608 419.192H269.584C270.64 418.04 271.696 416.84 272.656 415.64H281.296ZM291.376 427.4H282.688V423.848H291.376V427.4ZM291.376 435.272H282.688V431.72H291.376V435.272ZM269.008 431.72H277.168V435.272H269.008V431.72ZM269.008 423.848H277.168V427.4H269.008V423.848ZM263.488 439.928H297.088V419.192H285.616C287.104 417.272 288.496 415.16 289.456 413.336L285.424 410.888L284.512 411.128H275.872C276.256 410.504 276.64 409.88 277.024 409.256L270.736 408.008C268.24 412.472 263.824 417.752 257.632 421.64C258.928 422.6 260.848 424.664 261.712 426.056C262.336 425.624 262.912 425.192 263.488 424.712V439.928ZM262.624 453.224C265.36 450.776 267.904 446.696 269.392 442.76L263.776 441.272C262.384 444.776 259.792 448.328 257.296 450.296L262.624 453.224ZM272.032 442.952C272.56 446.12 272.944 450.2 272.944 452.6L278.704 451.88C278.656 449.48 278.08 445.544 277.456 442.424L272.032 442.952ZM281.2 443.096C282.496 446.12 283.888 450.104 284.368 452.456L289.936 451.112C289.312 448.664 287.824 444.776 286.432 441.896L281.2 443.096ZM290.416 442.952C292.912 446.12 295.936 450.488 297.088 453.224L302.704 450.68C301.36 447.8 298.144 443.672 295.648 440.792L290.416 442.952Z" fill="#032164"/>
</g>
</svg>
