<svg width="512" height="512" viewBox="0 0 512 512" fill="none" xmlns="http://www.w3.org/2000/svg">
<g id="&#230;&#147;&#138;&#229;&#138;&#141;">
<rect width="512" height="512" fill="white"/>
<path id="&#230;&#147;&#138;&#229;&#138;&#141;_2" d="M215.872 420.68V419.48H219.04V420.68H215.872ZM215.872 416.456H219.04V417.608H215.872V416.456ZM226.72 416.456V417.608H223.36V416.456H226.72ZM226.72 420.68H223.36V419.48H226.72V420.68ZM219.04 429.272H216.352V426.92H212.512V432.152H230.176V426.92H226.144V429.272H223.36V426.584H231.952V423.8H223.36V422.648H230.608V414.488H223.36V413.336H231.808V410.504H223.36V408.392H219.04V410.504H210.88V413.336H219.04V414.488H212.176V422.648H219.04V423.8H210.208V426.584H219.04V429.272ZM234.832 441.272H250.624V437.768H234.832V436.088C239.248 435.8 243.376 435.416 246.784 434.84L243.472 432.008C236.992 432.968 224.992 433.352 215.104 433.304C215.392 434.12 215.872 435.608 215.968 436.472C220.144 436.52 224.752 436.52 229.216 436.328V437.768H213.808V441.272H229.216V442.808H210.64V446.456H229.216V448.136C229.216 448.76 228.928 448.952 228.16 448.952C227.488 449 224.608 449.048 222.304 448.952C223.024 450.104 223.792 451.832 224.128 453.176C227.824 453.176 230.416 453.176 232.336 452.504C234.256 451.88 234.832 450.824 234.832 448.28V446.456H253.456V442.856H234.832V441.272ZM245.296 423.608C244.384 424.616 243.28 425.432 242.032 426.104C240.88 425.384 239.92 424.52 239.152 423.608H245.296ZM248.992 419.96L248.176 420.008H236.176C238.672 418.184 239.392 415.784 239.536 413.48H243.568V413.96C243.568 416.504 243.856 417.464 244.576 418.184C245.248 418.904 246.544 419.192 247.6 419.192H249.76C250.528 419.192 251.44 419.096 252.016 418.808C252.736 418.568 253.216 418.088 253.504 417.512C253.84 416.936 254.032 415.544 254.128 414.2C253.072 413.864 251.584 413.144 250.816 412.472C250.768 413.384 250.72 414.2 250.576 414.536C250.48 414.92 250.384 415.064 250.192 415.16C250.096 415.208 249.904 415.256 249.664 415.256H248.896C248.704 415.256 248.608 415.208 248.464 415.064C248.368 414.872 248.368 414.488 248.368 413.864V409.688H234.832V412.52C234.832 414.248 234.448 415.928 231.328 417.464C232.048 417.896 233.344 419.048 234.256 420.008H232.72V423.608H237.184L234.592 424.376C235.456 425.624 236.464 426.776 237.616 427.832C235.744 428.312 233.728 428.648 231.568 428.888C232.288 429.8 233.152 431.48 233.488 432.536C236.416 432.104 239.104 431.48 241.456 430.568C244.336 432.2 247.792 433.352 251.728 434.024C252.304 432.776 253.552 431.048 254.56 430.088C251.44 429.752 248.56 429.08 246.064 428.12C248.56 426.344 250.432 423.896 251.632 420.68L248.992 419.96ZM291.328 413.192H286.096V440.888H291.328V413.192ZM267.28 418.952C269.104 417.032 270.592 415.16 271.888 413.384C273.952 414.968 276.304 417.032 278.32 418.952H267.28ZM265.312 423.368H278.992V419.624C280.096 420.728 281.056 421.736 281.824 422.6L285.424 418.424C282.688 415.64 277.6 411.512 273.76 408.584H268.48C266.368 412.664 262.432 417.464 256.864 420.968C258.016 421.832 259.6 423.704 260.32 424.952C262.192 423.656 263.824 422.264 265.312 420.872V423.368ZM276.784 429.656H279.472V433.88H276.784V429.656ZM272.896 437.72H283.552V425.816H272.896V437.72ZM264.256 429.656H266.848V433.88H264.256V429.656ZM260.32 437.72H270.976V425.816H260.32V437.72ZM264.304 437.96C263.344 442.952 260.944 447.08 257.296 449.72C258.352 450.536 260.128 452.264 260.848 453.176C262.864 451.592 264.592 449.576 266.032 447.176C266.896 448.04 267.712 448.952 268.192 449.672L271.408 446.312C270.688 445.352 269.248 444.056 268 442.952C268.48 441.608 268.864 440.216 269.2 438.776L264.304 437.96ZM276.016 437.912C275.008 443 272.704 447.224 268.864 449.816C269.92 450.632 271.744 452.456 272.464 453.368C274.48 451.88 276.16 449.912 277.552 447.608C279.568 449.48 281.584 451.448 282.688 452.84L286.144 449.192C284.704 447.608 282.016 445.256 279.616 443.24C280.144 441.8 280.624 440.264 280.96 438.632L276.016 437.912ZM295.408 409.304V446.552C295.408 447.32 295.12 447.56 294.352 447.56C293.536 447.56 291.184 447.56 288.64 447.464C289.408 449.096 290.176 451.544 290.368 453.08C294.16 453.128 296.752 452.888 298.48 451.976C300.208 451.112 300.832 449.576 300.832 446.552V409.304H295.408Z" fill="#032164"/>
<g id="&#229;&#156;&#150;">
<circle id="Ellipse 4" cx="163.864" cy="111.331" r="19.3311" fill="#032164"/>
<circle id="Ellipse 5" cx="346.301" cy="111.331" r="19.3311" fill="#032164"/>
<path id="Vector 10" d="M157.046 212.757C192.048 206.322 214.971 201.54 233.655 203.665C241.45 206.696 245.583 211.588 236.959 218.256C228.335 224.924 192.883 230.942 192.883 230.942C192.883 230.942 226.69 260.037 228.859 268.523C231.027 277.009 229.578 360.051 229.578 360.051C229.578 360.051 229.919 400.623 215.438 369.143C200.957 337.663 196.152 284.306 200.078 287.919C192.915 282.426 176.163 274.24 172.497 267.31C169.285 286.389 168.586 294.045 163.623 308.528C158.661 323.011 83.758 375.811 83.758 375.811C69.9674 383.084 63.372 373.992 66.9694 364.9C70.5668 355.808 144.31 301.457 141.512 287.919C138.714 274.382 136.725 251.325 143.928 229.729C146.345 222.485 147.378 216.367 157.046 212.757Z" fill="#032164" stroke="#032164"/>
<path id="Vector 11" d="M155.489 173.683C181.382 176.573 174.133 152.41 165.676 147.577C157.218 142.744 154.802 142.744 142.72 138.515C134.281 135.561 124.623 130.754 121.577 128.85C118.642 127.015 125.806 116.768 129.43 104.686C133.055 92.6041 122.785 91.8793 120.451 93.3379C115.619 96.3583 113.806 101.795 110.182 107.836C102.4 120.806 91.372 140.328 97.4957 144.082C97.4957 144.082 134.263 168.116 155.489 173.683Z" fill="#032164" stroke="#032164"/>
<path id="Vector 12" d="M276.225 204.362C281.662 201.945 357.778 214.027 357.778 214.027C374.693 218.256 374.043 235.447 377.714 290.143C377.714 290.143 433.29 343.304 444.768 363.843C448.202 369.987 444.483 380.216 433.29 377.737C433.29 377.737 371.216 339.695 347.509 308.87C339.576 298.556 338.447 266.584 338.447 266.584C331.826 274.036 326.723 277.712 315.492 283.498C312.562 309.146 300.174 363.359 294.952 374.113C289.948 384.419 285.287 378.342 282.87 374.113C282.87 374.113 275.131 300.017 284.683 266.584C287.099 258.126 319.116 231.546 319.116 231.546C309.048 229.13 286.374 223.21 276.225 218.86C266.077 214.511 270.789 206.778 276.225 204.362Z" fill="#032164" stroke="#032164"/>
<path id="Vector 13" d="M407.331 178.255C407.331 166.647 364.44 138.989 342.692 146.238C320.945 153.487 324.553 170.779 339.051 175.365C353.55 179.952 384.721 185.877 381.338 191.676C377.955 197.475 376.522 216.313 376.522 221.146C377.512 227.893 379.272 229.006 384.979 225.375C390.686 221.743 407.331 189.864 407.331 178.255Z" fill="#032164" stroke="#032164"/>
</g>
</g>
</svg>
