<svg width="512" height="512" viewBox="0 0 512 512" fill="none" xmlns="http://www.w3.org/2000/svg">
<g id="&#230;&#147;&#188;&#232;&#178;&#147;">
<rect width="512" height="512" fill="white"/>
<path id="&#230;&#147;&#188;&#232;&#178;&#147;_2" d="M233.824 447.944V445.976H245.536V447.944H233.824ZM230.32 430.952H237.184L233.728 432.008C234.304 433.496 234.928 435.416 235.12 436.712H229.648C230.848 435.224 231.856 433.64 232.672 432.104L230.32 430.952ZM239.296 415.16C238.864 415.832 238.432 416.456 238 416.984H232.768C233.296 416.408 233.776 415.784 234.256 415.16H239.296ZM246.976 422.36H241.744V420.392H246.976V422.36ZM242.608 430.952L239.728 432.2C240.592 433.592 241.456 435.464 241.792 436.712H235.696L239.056 435.512C238.816 434.312 238.144 432.392 237.52 430.952H242.608ZM241.744 425.576H246.976V427.544H241.744V425.576ZM232.528 425.576H237.04V427.544H232.528V425.576ZM237.04 422.36H232.528V420.392H237.04V422.36ZM245.536 442.472H233.824V440.504H245.536V442.472ZM242.032 436.712L245.536 435.032C245.152 433.928 244.288 432.248 243.472 430.952H247.552L245.776 432.008C247.024 433.4 248.416 435.128 249.52 436.712H242.032ZM254.752 436.28C253.888 434.792 252.16 432.728 250.528 430.952H252.16V416.984H243.664C244.624 415.784 245.488 414.536 246.256 413.384L243.184 411.032L242.176 411.32H236.896C237.28 410.648 237.664 409.928 238.048 409.256L232.912 408.392C231.328 411.608 228.496 415.304 224.368 418.232V417.416H220.24V408.392H215.008V417.416H209.872V422.696H215.008V431C212.848 431.528 210.928 432.008 209.296 432.392L210.544 437.816L215.008 436.568V447.128C215.008 447.752 214.816 447.944 214.192 447.944C213.616 447.992 212.032 447.992 210.304 447.896C210.976 449.432 211.648 451.784 211.792 453.176C214.816 453.224 216.88 453.032 218.32 452.12C219.76 451.208 220.24 449.768 220.24 447.128V435.032L224.896 433.64L224.176 428.552L220.24 429.56V422.696H224.368V418.76C225.424 419.528 226.912 420.824 227.584 421.784V430.952H228.304C227.056 432.92 225.28 434.936 223.312 436.184L226.864 439.4C227.488 438.92 228.064 438.392 228.64 437.864V453.224H233.824V451.784H245.536V453.224H251.008V438.68L254.752 436.28ZM272.608 408.248C268.768 410.456 262.48 412.664 256.864 413.816C257.824 414.824 258.928 416.648 259.456 417.8C265.216 416.552 271.552 414.392 275.68 411.656L272.608 408.248ZM265.984 423.032C265.456 421.544 264.112 419.24 262.864 417.656L259.072 419.288C260.272 421.064 261.52 423.416 262 424.952L265.984 423.032ZM266.08 416.84C267.04 418.232 268.048 420.2 268.384 421.496L271.408 420.008C267.52 423.128 262.288 426.008 257.248 427.928C258.256 428.888 259.456 430.616 260.08 431.72C262.432 430.76 264.736 429.704 266.992 428.456C267.328 428.936 267.616 429.416 267.856 429.896C265.168 432.248 260.848 434.744 257.488 436.088C258.496 437 259.648 438.776 260.272 439.976C263.104 438.44 266.608 436.088 269.44 433.784C269.632 434.552 269.824 435.32 269.968 436.04C266.8 439.4 261.568 442.904 257.248 444.68C258.256 445.736 259.408 447.512 260.032 448.712C263.392 446.984 267.28 444.248 270.448 441.416C270.448 444.152 269.92 446.36 269.2 447.176C268.528 448.28 267.856 448.472 266.8 448.472C265.936 448.472 264.544 448.424 263.2 448.28C263.92 449.672 264.304 451.688 264.4 453.08C265.6 453.128 266.992 453.176 268 453.176C270.208 453.128 271.888 452.456 273.28 450.68C276.496 447.128 276.736 434.264 270.88 426.152C273.28 424.616 275.488 422.888 277.312 421.016L273.952 417.704C273.376 418.28 272.752 418.856 272.08 419.432C271.6 418.184 270.544 416.504 269.584 415.16L266.08 416.84ZM286.72 430.76V435.56H282.832V430.76H286.72ZM295.552 435.56H291.52V430.76H295.552V435.56ZM291.52 445.352V440.264H295.552V445.352H291.52ZM282.832 445.352V440.264H286.72V445.352H282.832ZM277.696 453.128H282.832V450.248H295.552V453.08H300.88V425.864H277.696V453.128ZM297.232 413.864V408.776H292V413.864H286.384V408.776H281.2V413.864H276.064V419H281.2V424.712H286.384V419H292V424.712H297.232V419H301.984V413.864H297.232Z" fill="#032164"/>
<g id="&#229;&#156;&#150;">
<circle id="Ellipse 7" cx="375.842" cy="333.74" r="30.158" fill="#032164"/>
<circle id="Ellipse 8" cx="281" cy="163" r="65" fill="#032164"/>
<path id="Vector 20" d="M106.833 363.898C111.564 342.915 179.212 252.916 204.545 240.853C229.877 228.79 256.054 251.831 244.956 276.44C233.858 301.049 196.1 331.93 182.831 345.2C182.831 345.2 247.369 351.835 269.083 356.057C290.796 360.279 275.717 371.136 267.273 373.548C258.829 375.961 185.737 386.598 124.928 384.405C118.802 382.769 102.102 384.881 106.833 363.898Z" fill="#032164" stroke="#032164"/>
<path id="Vector 21" d="M401.778 283.677C396.349 283.074 384.889 301.169 383.08 304.788C381.27 308.407 401.778 319.264 401.778 319.264C401.778 319.264 407.206 284.281 401.778 283.677Z" fill="#032164" stroke="#032164"/>
<path id="Vector 22" d="M333.217 290.088C330.355 294.74 346.199 318.496 348.7 321.677C351.201 324.857 365.401 305.273 365.401 305.273C365.401 305.273 336.079 285.436 333.217 290.088Z" fill="#032164" stroke="#032164"/>
<path id="Vector 23" d="M245.788 321.516C256.645 295.58 311.633 284.058 351.341 321.516C351.341 321.516 362.198 352.881 359.182 357.103C356.166 361.325 292.231 364.341 292.231 364.341C292.231 364.341 386.324 366.15 392.356 367.96C398.387 369.769 397.925 373.216 395.975 376.404C394.024 379.592 251.648 389.759 245.788 380.023C239.928 370.287 237.344 372.182 237.344 357.103C237.344 342.024 234.931 347.452 245.788 321.516Z" fill="#032164" stroke="#032164"/>
</g>
</g>
</svg>
