<svg width="512" height="512" viewBox="0 0 512 512" fill="none" xmlns="http://www.w3.org/2000/svg">
<g id="&#231;&#148;&#169;&#233;&#141;&#139;">
<rect width="512" height="512" fill="white"/>
<path id="&#231;&#148;&#169;&#233;&#141;&#139;_2" d="M219.904 428.36V424.136H229.072V428.36H219.904ZM229.072 415.448V419.576H219.904V415.448H229.072ZM244.816 419.576H234.544V415.448H244.816V419.576ZM234.544 428.36V424.136H244.816V428.36H234.544ZM237.808 446.792C234.928 446.792 234.544 446.36 234.544 443.624V433.208H244.816V435.992C244.816 436.712 244.528 436.904 243.76 436.904C242.992 436.904 240.112 436.904 237.808 436.856C238.576 438.2 239.296 440.456 239.536 441.944C243.424 441.944 246.16 441.848 248.08 441.08C250 440.264 250.576 438.872 250.576 436.04V410.648H214.24V441.944H219.904V433.208H229.072V443.624C229.072 450.2 230.8 451.928 237.232 451.928H246.88C252.112 451.928 253.744 449.912 254.464 444.008C252.928 443.672 250.72 442.76 249.424 441.896C249.088 445.88 248.656 446.792 246.352 446.792H237.808ZM263.392 420.248C265.264 417.992 266.752 415.736 267.904 413.72C269.824 415.688 271.744 418.28 272.944 420.248H263.392ZM269.584 433.352H275.056V428.504H269.584V424.952H274.384V420.248H274L277.36 416.84C275.728 414.296 272.368 410.792 269.632 408.392H264.832C263.344 412.136 260.56 416.696 256.576 420.152C257.68 420.92 259.264 422.696 260.032 423.848L260.56 423.32V424.952H264.736V428.504H258.64V433.352H264.736V445.976C262.192 446.408 259.888 446.792 257.968 447.08L259.12 452.12C263.872 451.208 270.064 450.008 275.92 448.76L275.536 444.056C273.568 444.44 271.552 444.776 269.584 445.16V433.352ZM258.832 436.04C259.552 438.68 260.224 442.136 260.368 444.44L264.016 443.432C263.824 441.224 263.152 437.768 262.288 435.176L258.832 436.04ZM273.424 443.432C274.048 441.464 274.768 438.392 275.488 435.704L271.6 434.792C271.36 437.048 270.64 440.456 270.064 442.568L273.424 443.432ZM290.08 438.152V441.464H286.96V438.152H290.08ZM293.968 445.304V434.312H283.072V447.368H286.96V445.304H293.968ZM283.936 414.68H293.536V417.752H286.528V426.92H283.936V414.68ZM293.536 426.92H290.656V422.072H293.536V426.92ZM298.528 426.92V409.88H279.136V426.92H276.256V453.128H281.248V431.816H295.888V447.224C295.888 447.752 295.696 447.944 295.12 447.944C294.544 447.992 292.672 447.992 291.04 447.896C291.712 449.288 292.336 451.496 292.48 453.032C295.456 453.032 297.568 452.936 299.2 452.12C300.784 451.256 301.168 449.816 301.168 447.32V426.92H298.528Z" fill="#032164"/>
<g id="&#229;&#156;&#150;">
<circle id="Ellipse 1" cx="349.485" cy="70" r="25" fill="#032164"/>
<circle id="Ellipse 3" cx="259.485" cy="129" r="25" fill="#032164"/>
<path id="Rectangle 4" d="M142.485 144C142.485 144 181.337 162.168 207.985 167.5C219.385 169.781 237.485 171.5 237.485 171.5L229.985 202L181.485 180.5L137.485 155.5C127.485 148 136.485 141 142.485 144Z" fill="#032164"/>
<path id="Vector 8" d="M169.5 298C172 293.5 224.485 261 249.985 250.5C275.485 240 309.985 326 309.985 326L375.985 387.5C384.985 402.5 363.985 397.5 363.985 397.5C363.985 397.5 329.985 373 294.985 346C263.485 324.5 252.738 289.086 247.485 290C235.985 292 194.907 307.042 195.485 311C199.5 338.5 196.976 378.354 197.985 386C198.993 393.646 186.268 406.338 181.485 388.5C176.702 370.662 161.636 312.156 169.5 298Z" fill="#032164" stroke="#032164"/>
<path id="Vector 9" d="M261.985 169C275.322 156.921 311.485 157 311.485 157C311.485 157 296.985 83.3103 298.985 78.5C300.985 73.6897 325.985 74.5 325.985 74.5L327.985 79.5C323.485 79.5 314.185 80.2 312.985 83C311.785 85.8 333.485 146.5 336.485 157C339.485 167.5 338.985 170.5 332.985 174C326.985 177.5 287.985 197 275.485 199.5C262.985 202 248.647 181.079 261.985 169Z" fill="#032164" stroke="#032164"/>
</g>
</g>
</svg>
